Coordinates
version=1
nRows=19
nColumns=24
inDegrees=yes

Units are S.I. units (second, meters, Newtons, ...)
Angles are in degrees.

endheader
time	pelvis_tilt	pelvis_list	pelvis_rotation	pelvis_tx	pelvis_ty	pelvis_tz	hip_flexion_r	hip_adduction_r	hip_rotation_r	knee_angle_r	ankle_angle_r	subtalar_angle_r	mtp_angle_r	hip_flexion_l	hip_adduction_l	hip_rotation_l	knee_angle_l	ankle_angle_l	subtalar_angle_l	mtp_angle_l	lumbar_extension	lumbar_bending	lumbar_rotation
      0.40000000	      4.84455933	     -1.84559258	     -0.77772078	      0.60102028	      1.04559875	     -0.02160049	     20.01810174	     -2.90617367	     -6.95037445	    -54.91982332	      2.56726654	     -0.00000082	      0.00000000	     -7.59621575	      1.38076320	      0.20135362	     -3.41728688	      3.22723098	      0.00000249	      0.00000000	    -19.54310531	     -0.47001089	     -4.72635202
      0.41666667	      4.82888855	     -1.77594552	     -0.63778542	      0.59830496	      1.04465766	     -0.02292209	     20.47637723	     -3.02707581	     -7.40106140	    -50.00708685	      2.56576991	     -0.00000133	      0.00000000	     -9.08311563	      1.51765104	      0.38507597	     -2.41719548	      3.44587414	      0.00000243	      0.00000000	    -19.84011301	     -0.35888282	     -5.05799796
      0.43333333	      4.73081144	     -1.47942768	     -0.69109473	      0.59601259	      1.04301875	     -0.02304077	     20.79106998	     -3.31937054	     -7.94041337	    -44.62673232	      2.44857079	     -0.00000212	      0.00000000	    -10.52419390	      1.86939134	      0.37915986	     -1.38721297	      3.67236249	      0.00000238	      0.00000000	    -19.86318690	     -0.63878819	     -5.06961773
      0.45000000	      4.84714107	     -1.05132429	     -0.57441588	      0.59384752	      1.04124472	     -0.02325181	     20.59068147	     -3.74563779	     -8.73823560	    -38.76975241	      2.15268517	     -0.00000293	      0.00000000	    -12.10044214	      2.32240064	      0.58445868	     -0.55182376	      4.01063381	      0.00000242	      0.00000000	    -20.09223492	     -0.97526901	     -5.21255885
      0.46666667	      4.70285510	     -0.36595029	     -0.52555635	      0.59132806	      1.03860438	     -0.02329496	     20.54892710	     -4.29476213	     -9.41169720	    -32.63493150	      1.68329550	     -0.00000307	      0.00000000	    -13.27284675	      3.04209644	      0.79041389	      0.06564780	      4.41502773	      0.00000242	      0.00000000	    -20.02811956	     -1.64446331	     -5.39005652
      0.48333333	      4.64180567	     -0.08939722	     -0.08196891	      0.59001913	      1.03611582	     -0.02298217	     19.88677694	     -4.32960032	    -10.40548273	    -25.85626178	      1.07960813	     -0.00000290	      0.00000000	    -14.77666351	      3.16058023	      1.33678931	      1.02029675	      4.71603147	      0.00000243	      0.00000000	    -20.01593380	     -1.79762391	     -5.72450316
      0.50000000	      4.51937273	      0.34971979	     -0.07387465	      0.58903743	      1.03299951	     -0.02158975	     19.29340437	     -4.21871557	    -10.44640932	    -19.14776529	      0.53667974	     -0.00000224	      0.00000000	    -16.21910352	      3.51322111	      1.46211013	      1.88274549	      5.03840671	      0.00000251	      0.00000000	    -19.86214298	     -2.31087136	     -5.53585662
      0.51666667	      4.38978395	      0.92470470	      0.03629531	      0.58776498	      1.02936959	     -0.02082299	     18.74544079	     -4.28270662	     -9.86593248	    -12.83865190	      0.18632341	     -0.00000138	      0.00000000	    -17.52395806	      3.99823989	      1.79189537	      2.49634684	      5.46303438	      0.00000253	      0.00000000	    -19.76433056	     -2.78550756	     -5.73474959
      0.53333333	      4.25696141	      1.51694381	      0.36124148	      0.58678821	      1.02539615	     -0.02033193	     18.19344446	     -4.51272291	     -8.93859364	     -7.21155133	      0.16416180	     -0.00000040	      0.00000000	    -18.72715069	      4.41793107	      2.37650831	      2.86610279	      6.00089812	      0.00000254	      0.00000000	    -19.62134732	     -3.19778976	     -5.91096244
      0.55000000	      4.18445821	      2.12386543	      0.27691401	      0.58634818	      1.02134075	     -0.01944297	     17.72372645	     -4.77590698	     -7.36745598	     -2.56806801	      0.37802896	      0.00000025	      0.00000000	    -20.02516109	      4.96671810	      2.60495667	      3.20908255	      6.49425449	      0.00000269	      0.00000000	    -19.51028552	     -3.63060281	     -5.98890813
      0.56666667	      4.12353820	      2.59671508	      0.27526862	      0.58550016	      1.01739675	     -0.01873062	     17.63128857	     -5.07087074	     -5.90574904	      0.38825987	      0.88102173	      0.00000060	      0.00000000	    -21.13117955	      5.34129264	      2.96662550	      3.17738987	      7.12220955	      0.00000272	      0.00000000	    -19.44713219	     -3.91198726	     -5.85848866
      0.58333333	      4.00009327	      2.93885700	      0.91880355	      0.58396916	      1.01397279	     -0.01854606	     17.74833716	     -5.46546827	     -5.49602315	      1.89627968	      1.19404981	      0.00000087	      0.00000000	    -21.77924493	      5.33126871	      3.87512523	      2.44779695	      7.94777417	      0.00000299	      0.00000000	    -19.56518038	     -3.77111219	     -6.23469641
      0.60000000	      3.99967947	      2.98923541	      0.96880997	      0.58464680	      1.01131694	     -0.01669980	     17.97079785	     -5.33997344	     -4.96996133	      1.81803755	      1.37656140	      0.00000077	      0.00000000	    -22.69576123	      5.15075792	      4.12129518	      1.77708310	      8.54365971	      0.00000317	      0.00000000	    -19.43247495	     -3.57341025	     -6.04235509
      0.61666667	      3.91026815	      2.76716335	      1.22848709	      0.58528056	      1.00910030	     -0.01430979	     18.60892857	     -4.96987515	     -5.00256790	      0.12192559	      1.12259908	      0.00000029	      0.00000000	    -23.21913285	      4.57867698	      4.43083351	      0.58015168	      9.26144539	      0.00000349	      0.00000000	    -19.35211799	     -3.08370285	     -6.10555015
      0.63333333	      3.87344012	      2.76119266	      1.74513442	      0.58627137	      1.00771722	     -0.01191224	     19.29527419	     -4.91415043	     -5.36349853	     -2.57059783	      0.46117583	     -0.00000027	      0.00000000	    -23.57851771	      4.10861523	      5.07378006	     -1.02245794	      9.79694160	      0.00000388	      0.00000000	    -19.32369834	     -2.76818333	     -6.38180071
      0.65000000	      3.75270076	      2.65032546	      2.20626710	      0.58779850	      1.00664094	     -0.00892180	     20.08813956	     -4.74759711	     -5.80572347	     -5.74039131	     -0.54851120	     -0.00000083	      0.00000000	    -23.75329691	      3.54342933	      5.68772028	     -2.80560568	     10.14271369	      0.00000430	      0.00000000	    -19.12587604	     -2.39443692	     -6.71141742
      0.66666667	      3.60942619	      2.64169664	      2.57127716	      0.58979929	      1.00627518	     -0.00642019	     20.78989355	     -4.73829930	     -6.08740024	     -8.91882957	     -1.64408804	     -0.00000123	      0.00000000	    -23.65741134	      3.20847509	      6.26918777	     -5.08597170	     10.22258120	      0.00000486	      0.00000000	    -18.83956142	     -1.95695092	     -6.85635302
      0.68333333	      3.67356751	      2.66996233	      2.66045738	      0.59153140	      1.00668420	     -0.00361892	     21.44000176	     -4.71682390	     -6.00898768	    -12.52018521	     -2.21826128	     -0.00000152	      0.00000000	    -23.38873837	      3.06698894	      6.58559113	     -8.07668026	     10.04691194	      0.00000555	      0.00000000	    -18.73198261	     -1.57573294	     -6.71726343
      0.70000000	      3.93861893	      2.48912340	      2.93461066	      0.59495351	      1.00819728	     -0.00125026	     21.52044497	     -4.56205469	     -6.06836313	    -15.84587402	     -2.21774772	     -0.00000168	      0.00000000	    -22.98913413	      2.68759283	      6.87032306	    -11.79554880	      9.45401559	      0.00000654	      0.00000000	    -18.85363916	     -0.98759903	     -6.79726754
